<svg width="14" height="13" viewBox="0 0 14 13" fill="none" xmlns="http://www.w3.org/2000/svg">
<path d="M8.84238 1.30633C8.81682 1.46605 8.80404 1.62577 8.80404 1.78549C8.80404 3.22296 9.9668 4.38507 11.3979 4.38507C11.5576 4.38507 11.7109 4.36654 11.8706 4.34099V9.49607C11.8706 11.6625 10.5929 12.9466 8.42072 12.9466H3.70007C1.52726 12.9466 0.249512 11.6625 0.249512 9.49607V4.76903C0.249512 2.59686 1.52726 1.30633 3.70007 1.30633H8.84238ZM8.97079 5.19069C8.79766 5.17153 8.6258 5.24819 8.52294 5.38874L6.9775 7.38842L5.20718 5.99567C5.09857 5.91262 4.9708 5.88004 4.84302 5.89345C4.71588 5.91262 4.60089 5.98226 4.52358 6.08448L2.63315 8.54478L2.59418 8.60228C2.48557 8.80608 2.53668 9.06802 2.72835 9.20921C2.81779 9.26671 2.91362 9.30505 3.02223 9.30505C3.16981 9.31143 3.30972 9.23413 3.39916 9.11338L5.00274 7.04918L6.82353 8.41701L6.88103 8.4547C7.08547 8.56331 7.34102 8.51284 7.48796 8.32054L9.33431 5.93818L9.30875 5.95095C9.41098 5.8104 9.43014 5.63152 9.35987 5.4718C9.29023 5.31208 9.13626 5.20347 8.97079 5.19069ZM11.4874 0.168945C12.3371 0.168945 13.0271 0.85893 13.0271 1.70863C13.0271 2.55834 12.3371 3.24832 11.4874 3.24832C10.6377 3.24832 9.94769 2.55834 9.94769 1.70863C9.94769 0.85893 10.6377 0.168945 11.4874 0.168945Z" fill="#86889A"/>
</svg>
