<svg width="14" height="14" viewBox="0 0 14 14" fill="none" xmlns="http://www.w3.org/2000/svg">
<path d="M4.01338 10.4953C3.28828 10.4953 2.70754 11.0826 2.70754 11.8077C2.70754 12.5328 3.28828 13.1201 4.01338 13.1201C4.73848 13.1201 5.32578 12.5328 5.32578 11.8077C5.32578 11.0826 4.73848 10.4953 4.01338 10.4953ZM0.0761719 -0.00390625V1.3085H1.38857L3.74762 6.28578L2.86175 7.89348C2.76003 8.08377 2.70098 8.29704 2.70098 8.52671C2.70098 9.25181 3.28828 9.83911 4.01338 9.83911H11.8878V8.52671H4.29226C4.2004 8.52671 4.12821 8.45453 4.12821 8.36266C4.12821 8.33313 4.13478 8.30688 4.1479 8.28391L4.7352 7.21431H9.6239C10.116 7.21431 10.5459 6.94198 10.7723 6.53842L13.1182 2.27967C13.1707 2.18781 13.2002 2.07953 13.2002 1.9647C13.2002 1.79066 13.1311 1.62375 13.008 1.50069C12.8849 1.37763 12.718 1.3085 12.544 1.3085H2.84206L2.21867 -0.00390625H0.0761719ZM10.5754 10.4953C9.85029 10.4953 9.26955 11.0826 9.26955 11.8077C9.26955 12.5328 9.85029 13.1201 10.5754 13.1201C11.3005 13.1201 11.8878 12.5328 11.8878 11.8077C11.8878 11.0826 11.3005 10.4953 10.5754 10.4953Z" fill="#86889A"/>
</svg>
