<svg width="20" height="20" viewBox="0 0 20 20" fill="none" xmlns="http://www.w3.org/2000/svg">
<path d="M18.8095 9.50001C18.813 10.8199 18.5046 12.1219 17.9095 13.3C17.204 14.7118 16.1193 15.8992 14.777 16.7293C13.4347 17.5594 11.8878 17.9994 10.3096 18C8.98969 18.0034 7.68767 17.6951 6.50956 17.1L0.80957 19L2.70957 13.3C2.1145 12.1219 1.80613 10.8199 1.80957 9.50001C1.81018 7.92177 2.25018 6.37487 3.08029 5.03257C3.91039 3.69027 5.09782 2.60559 6.50956 1.90003C7.68767 1.30496 8.98969 0.996587 10.3096 1.00003H10.8096C12.8939 1.11502 14.8626 1.99479 16.3387 3.47088C17.8148 4.94698 18.6945 6.91567 18.8095 9.00002V9.50001Z" stroke="#9496A6" stroke-width="1.5" stroke-linecap="round" stroke-linejoin="round"/>
</svg>
