<svg width="18" height="19" viewBox="0 0 18 19" fill="none" xmlns="http://www.w3.org/2000/svg">
<path d="M9 0.5C11.3841 0.5 13.6791 1.44495 15.3621 3.13687C17.0541 4.82968 18 7.11467 18 9.50854C18 12.6584 16.3431 15.5832 13.6431 17.2122C10.9431 18.8411 7.5861 18.9311 4.797 17.4461H4.7691C4.5 17.3381 4.2831 17.1492 4.0311 17.0232C3.753 16.9062 3.4371 16.8882 3.15 16.9791C2.4831 17.2122 1.8081 17.4011 1.1151 17.5631C0.7551 17.5721 0.6471 17.3561 0.6471 17.0052C0.8091 16.2942 1.0251 15.5913 1.278 14.9083C1.3761 14.6113 1.35 14.2963 1.197 14.0164L1.017 13.6663C0.3501 12.3974 0 10.9845 0 9.55444V9.49955C0 7.11467 0.9441 4.81978 2.6361 3.13687C4.3281 1.44495 6.6141 0.5 9 0.5ZM13.1481 8.3566C12.5181 8.3566 11.997 8.86958 11.997 9.50854C11.997 10.1385 12.5181 10.6605 13.1481 10.6605C13.7871 10.6605 14.3001 10.1385 14.3001 9.50854C14.3001 8.86958 13.7871 8.3566 13.1481 8.3566ZM9 8.3566C8.361 8.3566 7.8471 8.86958 7.8471 9.50854C7.8471 10.1385 8.361 10.6605 9 10.6605C9.639 10.6605 10.1511 10.1385 10.1511 9.50854C10.1511 8.86958 9.639 8.3566 9 8.3566ZM4.8501 8.3566C4.2111 8.3566 3.6981 8.86958 3.6981 9.50854C3.6981 10.1385 4.2111 10.6605 4.8501 10.6605C5.4801 10.6605 6.003 10.1385 6.003 9.50854C6.003 8.86958 5.4801 8.3566 4.8501 8.3566Z" fill="#90B10C"/>
</svg>
