<svg width="15" height="15" viewBox="0 0 15 15" fill="none" xmlns="http://www.w3.org/2000/svg">
<path d="M13.9178 5.83047C14.3363 4.98169 14.4403 4.01201 14.2114 3.09378C13.9824 2.17554 13.4353 1.36822 12.6673 0.815296C11.8993 0.26237 10.9601 -0.000345904 10.0167 0.0738376C9.07321 0.148021 8.18663 0.554299 7.51447 1.22047C7.26123 1.47345 7.04164 1.75802 6.86114 2.06713C7.48585 2.66097 7.88138 3.45591 7.97831 4.31236C8.07523 5.16882 7.86734 6.03204 7.39114 6.75047C7.96753 7.3895 8.73625 7.82358 9.58114 7.98713C9.82842 8.0337 10.0795 8.05714 10.3311 8.05713C10.855 8.0567 11.3736 7.95364 11.8578 7.7538C11.9237 7.72476 11.9967 7.7155 12.0678 7.72713L13.1678 7.96047C13.2687 7.98115 13.3731 7.97807 13.4726 7.95146C13.5721 7.92484 13.664 7.87543 13.7411 7.80713C13.8201 7.74019 13.8818 7.65533 13.9212 7.55965C13.9607 7.46397 13.9766 7.36024 13.9678 7.25713L13.8778 6.00713C13.8754 5.94575 13.8892 5.88482 13.9178 5.83047ZM9.00114 4.55713C8.90225 4.55713 8.80558 4.52781 8.72335 4.47287C8.64113 4.41793 8.57704 4.33984 8.5392 4.24847C8.50136 4.15711 8.49145 4.05658 8.51075 3.95959C8.53004 3.8626 8.57766 3.77351 8.64759 3.70358C8.71751 3.63365 8.8066 3.58603 8.90359 3.56674C9.00058 3.54745 9.10112 3.55735 9.19248 3.59519C9.28384 3.63304 9.36193 3.69712 9.41687 3.77935C9.47181 3.86157 9.50114 3.95824 9.50114 4.05713C9.50114 4.18974 9.44846 4.31692 9.35469 4.41069C9.26092 4.50445 9.13375 4.55713 9.00114 4.55713ZM10.6678 4.55713C10.5689 4.55713 10.4722 4.52781 10.39 4.47287C10.3078 4.41793 10.2437 4.33984 10.2059 4.24847C10.168 4.15711 10.1581 4.05658 10.1774 3.95959C10.1967 3.8626 10.2443 3.77351 10.3143 3.70358C10.3842 3.63365 10.4733 3.58603 10.5703 3.56674C10.6673 3.54745 10.7678 3.55735 10.8591 3.59519C10.9505 3.63304 11.0286 3.69712 11.0835 3.77935C11.1385 3.86157 11.1678 3.95824 11.1678 4.05713C11.1678 4.18974 11.1151 4.31692 11.0214 4.41069C10.9276 4.50445 10.8004 4.55713 10.6678 4.55713ZM12.3345 4.55713C12.2356 4.55713 12.1389 4.52781 12.0567 4.47287C11.9745 4.41793 11.9104 4.33984 11.8725 4.24847C11.8347 4.15711 11.8248 4.05658 11.8441 3.95959C11.8634 3.8626 11.911 3.77351 11.9809 3.70358C12.0508 3.63365 12.1399 3.58603 12.2369 3.56674C12.3339 3.54745 12.4345 3.55735 12.5258 3.59519C12.6172 3.63304 12.6953 3.69712 12.7502 3.77935C12.8051 3.86157 12.8345 3.95824 12.8345 4.05713C12.8345 4.18974 12.7818 4.31692 12.688 4.41069C12.5943 4.50445 12.4671 4.55713 12.3345 4.55713ZM4.66781 8.05713H4.00114C3.02903 8.05828 2.09707 8.44496 1.40968 9.13234C0.722296 9.81973 0.335619 10.7517 0.334473 11.7238V13.0571C0.334473 13.3223 0.43983 13.5767 0.627366 13.7642C0.814902 13.9518 1.06926 14.0571 1.33447 14.0571H7.33447C7.59969 14.0571 7.85404 13.9518 8.04158 13.7642C8.22912 13.5767 8.33447 13.3223 8.33447 13.0571V11.7238C8.33333 10.7517 7.94665 9.81973 7.25926 9.13234C6.57188 8.44496 5.63991 8.05828 4.66781 8.05713Z" fill="#86889A"/>
<path d="M4.33447 7.72363C5.99133 7.72363 7.33447 6.38049 7.33447 4.72363C7.33447 3.06678 5.99133 1.72363 4.33447 1.72363C2.67762 1.72363 1.33447 3.06678 1.33447 4.72363C1.33447 6.38049 2.67762 7.72363 4.33447 7.72363Z" fill="#86889A"/>
</svg>
