<svg width="13" height="13" viewBox="0 0 13 13" fill="none" xmlns="http://www.w3.org/2000/svg">
<path d="M6.6383 0.259766C5.39278 0.259766 4.17523 0.629106 3.13961 1.32108C2.104 2.01306 1.29683 2.99659 0.82019 4.1473C0.343549 5.29802 0.218838 6.56423 0.461827 7.78582C0.704817 9.00742 1.30459 10.1295 2.18531 11.0102C3.06603 11.891 4.18813 12.4907 5.40973 12.7337C6.63132 12.9767 7.89753 12.852 9.04825 12.3754C10.199 11.8987 11.1825 11.0916 11.8745 10.0559C12.5664 9.02032 12.9358 7.80277 12.9358 6.55725C12.9358 4.88705 12.2723 3.28526 11.0913 2.10426C9.91029 0.923248 8.3085 0.259766 6.6383 0.259766ZM8.61571 8.11482L6.93638 9.79415C6.89646 9.83237 6.84937 9.86233 6.79784 9.88232C6.74759 9.90453 6.69325 9.916 6.6383 9.916C6.58336 9.916 6.52902 9.90453 6.47877 9.88232C6.42723 9.86233 6.38015 9.83237 6.34022 9.79415L4.66089 8.11482C4.58184 8.03577 4.53743 7.92854 4.53743 7.81674C4.53743 7.70494 4.58184 7.59772 4.66089 7.51866C4.73995 7.43961 4.84717 7.39519 4.95898 7.39519C5.07078 7.39519 5.178 7.43961 5.25706 7.51866L6.21847 8.48428V3.61842C6.21847 3.50708 6.2627 3.40029 6.34144 3.32156C6.42017 3.24282 6.52696 3.19859 6.6383 3.19859C6.74965 3.19859 6.85644 3.24282 6.93517 3.32156C7.0139 3.40029 7.05814 3.50708 7.05814 3.61842V8.48428L8.01955 7.51866C8.09861 7.43961 8.20583 7.39519 8.31763 7.39519C8.42943 7.39519 8.53666 7.43961 8.61571 7.51866C8.69477 7.59772 8.73918 7.70494 8.73918 7.81674C8.73918 7.92854 8.69477 8.03577 8.61571 8.11482Z" fill="#86889A"/>
</svg>
