<svg width="12" height="13" viewBox="0 0 12 13" fill="none" xmlns="http://www.w3.org/2000/svg">
<path d="M2.49897 3.56779C2.49897 2.00117 3.7726 0.727539 5.33922 0.727539C6.90584 0.727539 8.17947 2.00117 8.17947 3.56779C8.17947 5.13441 6.90584 6.40804 5.33922 6.40804C3.7726 6.40804 2.49897 5.13441 2.49897 3.56779ZM7.58152 11.4906H7.13306C6.3916 11.4906 5.78768 10.8867 5.78768 10.1452C5.78768 9.40376 6.3916 8.79983 7.13306 8.79983H7.58152V8.35137C7.58152 7.98662 7.72503 7.65775 7.96421 7.41259C7.69513 7.34084 7.42007 7.30496 7.13306 7.30496H3.54538C1.64988 7.30496 0.107178 8.84766 0.107178 10.7432C0.107178 11.652 0.842653 12.3875 1.75153 12.3875H7.65925C7.61142 12.25 7.58152 12.0945 7.58152 11.9391V11.4906ZM10.2723 11.6879C10.3141 11.6221 10.356 11.5623 10.3919 11.4906H10.2723V11.6879ZM10.7207 9.69675H9.37536V8.35137C9.37536 8.10382 9.17445 7.90291 8.9269 7.90291C8.67935 7.90291 8.47844 8.10382 8.47844 8.35137V9.69675H7.13306C6.88551 9.69675 6.6846 9.89766 6.6846 10.1452C6.6846 10.3928 6.88551 10.5937 7.13306 10.5937H8.47844V11.9391C8.47844 12.1866 8.67935 12.3875 8.9269 12.3875C9.17445 12.3875 9.37536 12.1866 9.37536 11.9391V10.5937H10.7207C10.9683 10.5937 11.1692 10.3928 11.1692 10.1452C11.1692 9.89766 10.9683 9.69675 10.7207 9.69675Z" fill="#86889A"/>
</svg>
