<svg width="17" height="19" viewBox="0 0 17 19" fill="none" xmlns="http://www.w3.org/2000/svg">
<path fill-rule="evenodd" clip-rule="evenodd" d="M3.5 0.50293C2.94772 0.50293 2.5 0.95065 2.5 1.50293V2.67364C1.33481 3.08547 0.5 4.19671 0.5 5.50293C0.5 6.80915 1.33481 7.92043 2.5 8.33223V17.5029C2.5 18.0552 2.94772 18.5029 3.5 18.5029C4.05228 18.5029 4.5 18.0552 4.5 17.5029V8.33223C5.66519 7.92043 6.5 6.80915 6.5 5.50293C6.5 4.19671 5.66519 3.08547 4.5 2.67364V1.50293C4.5 0.95065 4.05228 0.50293 3.5 0.50293ZM4.5 5.50293C4.5 6.05522 4.05228 6.50293 3.5 6.50293C2.94772 6.50293 2.5 6.05522 2.5 5.50293C2.5 4.95065 2.94772 4.50293 3.5 4.50293C4.05228 4.50293 4.5 4.95065 4.5 5.50293ZM13.5 0.50293C12.9477 0.50293 12.5 0.95065 12.5 1.50293V9.67363C11.3348 10.0854 10.5 11.1967 10.5 12.5029C10.5 13.8091 11.3348 14.9204 12.5 15.3322V17.5029C12.5 18.0552 12.9477 18.5029 13.5 18.5029C14.0523 18.5029 14.5 18.0552 14.5 17.5029V15.3322C15.6652 14.9204 16.5 13.8091 16.5 12.5029C16.5 11.1967 15.6652 10.0854 14.5 9.67363V1.50293C14.5 0.95065 14.0523 0.50293 13.5 0.50293ZM14.5 12.5029C14.5 13.0552 14.0523 13.5029 13.5 13.5029C12.9477 13.5029 12.5 13.0552 12.5 12.5029C12.5 11.9506 12.9477 11.5029 13.5 11.5029C14.0523 11.5029 14.5 11.9506 14.5 12.5029Z" fill="#343B4E"/>
</svg>
