<svg width="19" height="20" viewBox="0 0 19 20" fill="none" xmlns="http://www.w3.org/2000/svg">
<path d="M8.13268 18.3374H4.13268C2.83656 18.3326 1.78568 17.2856 1.77615 15.9896V8.03303C1.7787 7.59915 1.97285 7.18856 2.30659 6.91129L3.01094 6.38955C3.26808 6.11558 3.29423 5.69753 3.07323 5.39366C2.85223 5.08978 2.44646 4.98585 2.10659 5.14607L1.38485 5.6852C0.656813 6.24853 0.224773 7.11261 0.210938 8.03303V15.9982C0.21572 18.1622 1.96874 19.9152 4.13268 19.92H8.13268C8.5649 19.92 8.91529 19.5696 8.91529 19.1374C8.91529 18.7052 8.5649 18.3548 8.13268 18.3548V18.3374Z" fill="#F4336C"/>
<path d="M19.002 8.01523C18.9929 7.10156 18.5749 6.24005 17.8629 5.6674L11.8542 0.876097C10.5338 -0.185261 8.65286 -0.185261 7.33246 0.876097L5.42811 2.25871C5.07032 2.51564 4.98857 3.01396 5.2455 3.37175C5.50243 3.72953 6.00076 3.81129 6.35854 3.55436L8.28898 2.11088C9.04667 1.48708 10.14 1.48708 10.8977 2.11088L16.9064 6.90218C17.2522 7.17632 17.4565 7.59136 17.4629 8.03262V15.9978C17.4629 17.2945 16.4117 18.3457 15.1151 18.3457H13.3325C13.15 18.3457 13.002 18.1977 13.002 18.0152V14.4239C13.002 13.2795 12.0769 12.3505 10.9325 12.3457H8.32376C7.77257 12.3457 7.24396 12.5646 6.85421 12.9544C6.46446 13.3441 6.2455 13.8727 6.2455 14.4239V15.7978C6.2455 16.2301 6.59589 16.5804 7.02811 16.5804C7.46033 16.5804 7.81072 16.2301 7.81072 15.7978V14.4239C7.80838 14.2887 7.86049 14.1581 7.95533 14.0617C8.05017 13.9652 8.17978 13.9109 8.31507 13.9109H10.9238C11.2023 13.9109 11.4281 14.1367 11.4281 14.4152V18.0152C11.4329 19.0636 12.2841 19.9109 13.3325 19.9109H15.0716C17.2375 19.9109 18.9933 18.1551 18.9933 15.9891L19.002 8.01523Z" fill="#F4336C"/>
</svg>
