<svg width="88" height="87" viewBox="0 0 88 87" fill="none" xmlns="http://www.w3.org/2000/svg">
<path d="M44.0001 0.0839844C20.0462 0.0839844 0.583984 19.5462 0.583984 43.5001C0.583984 67.454 20.0462 86.9162 44.0001 86.9162C67.954 86.9162 87.4162 67.454 87.4162 43.5001C87.4162 19.5462 67.954 0.0839844 44.0001 0.0839844ZM44.0001 4.0309C65.8226 4.0309 83.4693 21.6796 83.4693 43.5001C83.4693 47.4431 82.8773 51.242 81.8037 54.8317L70.0636 43.0916C68.8696 41.8977 67.2889 41.2997 65.7082 41.2997C64.1274 41.2997 62.5467 41.8977 61.3527 43.0916L50.9072 53.5371L32.5679 35.1978C31.3739 34.0038 29.7932 33.4059 28.2124 33.4059C26.6317 33.4059 25.0509 34.0038 23.857 35.1978L5.79589 53.2589C4.96899 50.0714 4.54403 46.793 4.5309 43.5001C4.5309 21.6776 22.1776 4.0309 44.0001 4.0309ZM28.2124 37.3291C28.7749 37.3291 29.3373 37.5462 29.7774 37.9882L48.1167 56.3276L36.6845 67.7598C36.325 68.132 36.1261 68.6306 36.1306 69.148C36.1351 69.6654 36.3426 70.1604 36.7085 70.5263C37.0744 70.8922 37.5694 71.0997 38.0868 71.1042C38.6043 71.1087 39.1028 70.9098 39.475 70.5503L64.1432 45.8821C64.3468 45.6731 64.5901 45.507 64.8589 45.3936C65.1277 45.2802 65.4164 45.2217 65.7082 45.2217C65.9999 45.2217 66.2887 45.2802 66.5574 45.3936C66.8262 45.507 67.0696 45.6731 67.2731 45.8821L80.3374 58.9464C74.3322 73.0724 60.3344 82.9693 44.0001 82.9693C27.1211 82.9693 12.78 72.3916 7.12798 57.5077L26.6455 37.9902C27.0876 37.5482 27.65 37.3311 28.2124 37.3311V37.3291Z" fill="#CAC8C8"/>
<path d="M44.0001 11.9248C38.5731 11.9248 34.1328 16.3651 34.1328 21.7921C34.1328 27.2191 38.5731 31.6594 44.0001 31.6594C49.4271 31.6594 53.8674 27.2191 53.8674 21.7921C53.8674 16.3651 49.4271 11.9248 44.0001 11.9248ZM44.0001 15.8717C47.2938 15.8717 49.9205 18.4984 49.9205 21.7921C49.9205 25.0858 47.2938 27.7125 44.0001 27.7125C40.7064 27.7125 38.0797 25.0858 38.0797 21.7921C38.0797 18.4984 40.7064 15.8717 44.0001 15.8717Z" fill="#CAC8C8"/>
</svg>
