<svg width="16" height="16" viewBox="0 0 16 16" fill="black" xmlns="http://www.w3.org/2000/svg">
<path d="M14.5814 6.77334C14.9999 5.92456 15.1039 4.95488 14.8749 4.03665C14.646 3.11841 14.0989 2.31109 13.3309 1.75817C12.5628 1.20524 11.6237 0.942525 10.6802 1.01671C9.73679 1.09089 8.85021 1.49717 8.17805 2.16334C7.9248 2.41632 7.70522 2.70089 7.52471 3.01C8.14942 3.60385 8.54496 4.39878 8.64188 5.25523C8.7388 6.11169 8.53091 6.97491 8.05471 7.69334C8.63111 8.33237 9.39982 8.76646 10.2447 8.93C10.492 8.97657 10.7431 9.00001 10.9947 9C11.5185 8.99957 12.0372 8.89652 12.5214 8.69667C12.5873 8.66763 12.6603 8.65837 12.7314 8.67L13.8314 8.90334C13.9323 8.92403 14.0366 8.92094 14.1361 8.89433C14.2357 8.86771 14.3276 8.8183 14.4047 8.75C14.4836 8.68306 14.5454 8.5982 14.5848 8.50252C14.6242 8.40684 14.6402 8.30311 14.6314 8.2L14.5414 6.95C14.539 6.88862 14.5528 6.82769 14.5814 6.77334ZM9.66471 5.5C9.56582 5.5 9.46915 5.47068 9.38693 5.41574C9.3047 5.3608 9.24062 5.28271 9.20277 5.19135C9.16493 5.09998 9.15503 4.99945 9.17432 4.90246C9.19361 4.80547 9.24123 4.71638 9.31116 4.64645C9.38109 4.57652 9.47018 4.5289 9.56717 4.50961C9.66416 4.49032 9.76469 4.50022 9.85605 4.53806C9.94742 4.57591 10.0255 4.63999 10.0804 4.72222C10.1354 4.80444 10.1647 4.90111 10.1647 5C10.1647 5.13261 10.112 5.25979 10.0183 5.35356C9.9245 5.44733 9.79732 5.5 9.66471 5.5ZM11.3314 5.5C11.2325 5.5 11.1358 5.47068 11.0536 5.41574C10.9714 5.3608 10.9073 5.28271 10.8694 5.19135C10.8316 5.09998 10.8217 4.99945 10.841 4.90246C10.8603 4.80547 10.9079 4.71638 10.9778 4.64645C11.0478 4.57652 11.1368 4.5289 11.2338 4.50961C11.3308 4.49032 11.4314 4.50022 11.5227 4.53806C11.6141 4.57591 11.6922 4.63999 11.7471 4.72222C11.8021 4.80444 11.8314 4.90111 11.8314 5C11.8314 5.13261 11.7787 5.25979 11.6849 5.35356C11.5912 5.44733 11.464 5.5 11.3314 5.5ZM12.998 5.5C12.8992 5.5 12.8025 5.47068 12.7203 5.41574C12.638 5.3608 12.574 5.28271 12.5361 5.19135C12.4983 5.09998 12.4884 4.99945 12.5077 4.90246C12.5269 4.80547 12.5746 4.71638 12.6445 4.64645C12.7144 4.57652 12.8035 4.5289 12.9005 4.50961C12.9975 4.49032 13.098 4.50022 13.1894 4.53806C13.2808 4.57591 13.3588 4.63999 13.4138 4.72222C13.4687 4.80444 13.498 4.90111 13.498 5C13.498 5.13261 13.4454 5.25979 13.3516 5.35356C13.2578 5.44733 13.1307 5.5 12.998 5.5ZM5.33138 9H4.66471C3.69261 9.00115 2.76064 9.38783 2.07326 10.0752C1.38587 10.7626 0.999194 11.6946 0.998047 12.6667V14C0.998047 14.2652 1.1034 14.5196 1.29094 14.7071C1.47848 14.8946 1.73283 15 1.99805 15H7.99805C8.26326 15 8.51762 14.8946 8.70515 14.7071C8.89269 14.5196 8.99805 14.2652 8.99805 14V12.6667C8.9969 11.6946 8.61022 10.7626 7.92284 10.0752C7.23545 9.38783 6.30349 9.00115 5.33138 9Z" fill="#858799"/>
<path d="M4.99805 8.66675C6.6549 8.66675 7.99805 7.3236 7.99805 5.66675C7.99805 4.00989 6.6549 2.66675 4.99805 2.66675C3.34119 2.66675 1.99805 4.00989 1.99805 5.66675C1.99805 7.3236 3.34119 8.66675 4.99805 8.66675Z" fill="#858799"/>
</svg>
