<svg width="12" height="14" viewBox="0 0 12 14" fill="black" xmlns="http://www.w3.org/2000/svg">
<path d="M11.9979 2.43751C11.998 2.38129 11.9873 2.32563 11.9664 2.27387C11.9454 2.22212 11.9148 2.17535 11.8762 2.13637L9.90055 0.122168C9.8519 0.0717669 9.79185 0.0351566 9.72604 0.0157675C9.66023 -0.00362155 9.5908 -0.00515475 9.52427 0.0113116C9.45774 0.0277779 9.39628 0.0617047 9.34565 0.109913C9.29502 0.158121 9.25688 0.219033 9.2348 0.286941C9.23209 0.298304 8.87215 1.3949 7.84917 1.32387C7.5354 1.30095 7.23312 1.19069 6.97342 1.00445C6.71371 0.818205 6.50595 0.5627 6.37152 0.264213C6.34148 0.186883 6.29017 0.120711 6.22412 0.0741541C6.15808 0.0275975 6.08031 0.00277161 6.00075 0.00284958H5.99805C5.91859 0.00312727 5.84093 0.0277339 5.77459 0.0736537C5.70825 0.119574 5.65612 0.184812 5.62458 0.261373C5.49088 0.56068 5.28338 0.817019 5.02357 1.00383C4.76376 1.19065 4.4611 1.30114 4.14693 1.32387C3.14018 1.3949 2.77483 0.329554 2.76129 0.286941C2.73921 0.219033 2.70107 0.158121 2.65044 0.109913C2.59981 0.0617047 2.53835 0.0277779 2.47182 0.0113116C2.40529 -0.00515475 2.33587 -0.00362155 2.27005 0.0157675C2.20424 0.0351566 2.14419 0.0717669 2.09554 0.122168L0.119931 2.13637C0.0813314 2.17535 0.0506435 2.22212 0.0297142 2.27387C0.00878487 2.32563 -0.00195301 2.38129 -0.00185309 2.43751C-0.00307311 2.49406 0.00687734 2.55027 0.0273714 2.60259C0.0478656 2.6549 0.0784593 2.7022 0.117225 2.74149C0.975127 3.6449 0.866874 4.90342 0.339143 7.05683C-0.185882 9.20172 0.349968 12.1421 5.87626 13.9801C5.95549 14.0066 6.0406 14.0066 6.11983 13.9801C11.6461 12.1421 12.182 9.20172 11.657 7.05683C11.1292 4.90342 11.021 3.6449 11.8789 2.74149C11.9176 2.7022 11.9482 2.6549 11.9687 2.60259C11.9892 2.55027 11.9992 2.49406 11.9979 2.43751ZM6.40399 7.3807V9.12218C6.40399 9.2352 6.36123 9.34358 6.2851 9.4235C6.20897 9.50342 6.10571 9.54831 5.99805 9.54831C5.89038 9.54831 5.78713 9.50342 5.711 9.4235C5.63487 9.34358 5.5921 9.2352 5.5921 9.12218V7.3807C5.33789 7.28084 5.12516 7.09044 4.99104 6.84274C4.85692 6.59503 4.80992 6.30575 4.85826 6.02538C4.90659 5.74501 5.04719 5.49136 5.2555 5.30871C5.46382 5.12605 5.72662 5.026 5.99805 5.026C6.26947 5.026 6.53228 5.12605 6.74059 5.30871C6.94891 5.49136 7.0895 5.74501 7.13784 6.02538C7.18617 6.30575 7.13918 6.59503 7.00505 6.84274C6.87093 7.09044 6.6582 7.28084 6.40399 7.3807ZM6.34446 6.24433C6.34392 6.31613 6.32315 6.38615 6.28476 6.44558C6.24638 6.505 6.19209 6.55117 6.12875 6.57826C6.0654 6.60534 5.99584 6.61214 5.92882 6.59779C5.86181 6.58344 5.80033 6.54859 5.75216 6.49762C5.70398 6.44665 5.67126 6.38186 5.65811 6.3114C5.64496 6.24094 5.65198 6.16797 5.67827 6.10169C5.70457 6.03541 5.74897 5.97878 5.80588 5.93895C5.86278 5.89911 5.92965 5.87786 5.99805 5.87785C6.04375 5.87793 6.08898 5.88748 6.13115 5.90596C6.17333 5.92444 6.21161 5.95148 6.2438 5.98553C6.27598 6.01958 6.30145 6.05998 6.31872 6.10439C6.336 6.1488 6.34474 6.19636 6.34446 6.24433Z" fill="#858799"/>
</svg>
