<svg width="20" height="19" viewBox="0 0 20 19" fill="none" xmlns="http://www.w3.org/2000/svg">
<path fill-rule="evenodd" clip-rule="evenodd" d="M0.808594 4.9226C0.808594 2.20392 3.01252 0 5.7312 0H14.2922C17.0109 0 19.2148 2.20392 19.2148 4.9226V13.4836C19.2148 16.2023 17.0109 18.4062 14.2922 18.4062H9.58367C9.22907 18.4062 8.94159 18.1188 8.94159 17.7642C8.94159 17.4096 9.22907 17.1221 9.58367 17.1221H14.2922C16.3017 17.1221 17.9307 15.4931 17.9307 13.4836V4.9226C17.9307 2.91314 16.3017 1.28416 14.2922 1.28416H5.7312C3.72174 1.28416 2.09275 2.91314 2.09275 4.9226V13.4836C2.09275 15.4931 3.72174 17.1221 5.7312 17.1221H6.15925C6.51385 17.1221 6.80133 17.4096 6.80133 17.7642C6.80133 18.1188 6.51385 18.4062 6.15925 18.4062H5.7312C3.01252 18.4062 0.808594 16.2023 0.808594 13.4836V4.9226Z" fill="white"/>
<path fill-rule="evenodd" clip-rule="evenodd" d="M10.0122 3.4248C10.3668 3.4248 10.6543 3.71228 10.6543 4.06688V14.3401C10.6543 14.6947 10.3668 14.9822 10.0122 14.9822C9.6576 14.9822 9.37012 14.6947 9.37012 14.3401V4.06688C9.37012 3.71228 9.6576 3.4248 10.0122 3.4248Z" fill="white"/>
<path fill-rule="evenodd" clip-rule="evenodd" d="M4.2334 9.2036C4.2334 8.849 4.52087 8.56152 4.87548 8.56152H15.1487C15.5033 8.56152 15.7908 8.849 15.7908 9.2036C15.7908 9.5582 15.5033 9.84568 15.1487 9.84568H4.87548C4.52087 9.84568 4.2334 9.5582 4.2334 9.2036Z" fill="white"/>
</svg>
