<svg width="15" height="15" viewBox="0 0 15 15" fill="none" xmlns="http://www.w3.org/2000/svg">
<g clip-path="url(#clip0_4508_26361)">
<path d="M13.1464 1.85754C11.2641 0.922883 9.19098 0.436523 7.08939 0.436523C4.98781 0.436523 2.91473 0.922883 1.03242 1.85754C0.914213 1.9171 0.814805 2.00824 0.745219 2.12084C0.675632 2.23344 0.638585 2.36312 0.638184 2.49549V11.0971C0.638585 11.2295 0.675632 11.3591 0.745219 11.4717C0.814805 11.5843 0.914213 11.6755 1.03242 11.7351L6.76683 14.6023C6.86688 14.6527 6.97736 14.6789 7.08939 14.6789C7.20143 14.6789 7.3119 14.6527 7.41195 14.6023L13.1464 11.7351C13.2646 11.6755 13.364 11.5843 13.4336 11.4717C13.5032 11.3591 13.5402 11.2295 13.5406 11.0971V2.49549C13.5402 2.36312 13.5032 2.23344 13.4336 2.12084C13.364 2.00824 13.2646 1.9171 13.1464 1.85754ZM12.107 10.6527L7.08939 13.1615L2.07179 10.6527V2.94707C3.6486 2.23459 5.35908 1.86609 7.08939 1.86609C8.81971 1.86609 10.5302 2.23459 12.107 2.94707V10.6527Z" fill="#86889A"/>
<path d="M4.61642 6.91777C4.45904 6.83335 4.2758 6.81072 4.10261 6.85432C3.92941 6.89792 3.77873 7.00461 3.68007 7.15349C3.58142 7.30237 3.5419 7.48271 3.56925 7.6592C3.5966 7.8357 3.68885 7.99562 3.82794 8.10766L5.97834 9.54126C6.09334 9.62301 6.23152 9.66572 6.37258 9.66312C6.46692 9.66366 6.56044 9.64558 6.64777 9.60991C6.7351 9.57424 6.81454 9.52168 6.88151 9.45525L10.4655 5.87124C10.6005 5.73626 10.6763 5.5532 10.6763 5.36231C10.6763 5.17143 10.6005 4.98836 10.4655 4.85338C10.3305 4.71841 10.1475 4.64258 9.95659 4.64258C9.7657 4.64258 9.58264 4.71841 9.44766 4.85338L6.2794 8.02164L4.61642 6.91777Z" fill="#86889A"/>
</g>
<defs>
<clipPath id="clip0_4508_26361">
<rect width="14" height="14" fill="white" transform="translate(0.638184 0.557617)"/>
</clipPath>
</defs>
</svg>
