<svg width="20" height="20" viewBox="0 0 20 20" fill="none" xmlns="http://www.w3.org/2000/svg">
<path d="M9.0798 18.2524C4.07461 18.2524 0.00195312 14.1797 0.00195312 9.17453C0.00195312 4.16933 4.07461 0.0966797 9.0798 0.0966797C14.085 0.0966797 18.1576 4.16933 18.1576 9.17453C18.1576 14.1797 14.085 18.2524 9.0798 18.2524ZM9.0798 1.7472C4.98487 1.7472 1.65247 5.07877 1.65247 9.17453C1.65247 13.2703 4.98487 16.6019 9.0798 16.6019C13.1747 16.6019 16.5071 13.2703 16.5071 9.17453C16.5071 5.07877 13.1747 1.7472 9.0798 1.7472Z" fill="#858799"/>
<path d="M18.9833 19.9027C18.8749 19.9028 18.7676 19.8815 18.6674 19.84C18.5673 19.7985 18.4764 19.7377 18.3998 19.6609L14.4427 15.7038C14.288 15.549 14.2011 15.339 14.2012 15.1201C14.2012 14.9011 14.2883 14.6912 14.4431 14.5365C14.598 14.3817 14.808 14.2948 15.0269 14.2949C15.2458 14.295 15.4557 14.382 15.6105 14.5369L19.5668 18.494C19.6825 18.6093 19.7615 18.7563 19.7935 18.9165C19.8256 19.0767 19.8093 19.2428 19.7468 19.3938C19.6843 19.5447 19.5783 19.6737 19.4424 19.7643C19.3065 19.8549 19.1467 19.9031 18.9833 19.9027Z" fill="#858799"/>
</svg>
