<svg width="12" height="12" viewBox="0 0 12 12" fill="black" xmlns="http://www.w3.org/2000/svg">
<path d="M6.49479 0.322465L7.92059 3.34603C7.96027 3.43016 8.01889 3.50293 8.09142 3.55808C8.16394 3.61322 8.24819 3.64908 8.33689 3.66256L11.5246 4.14749C11.6268 4.16301 11.7227 4.20813 11.8016 4.27775C11.8805 4.34737 11.9391 4.4387 11.971 4.54142C12.0029 4.64415 12.0067 4.75415 11.9819 4.859C11.9571 4.96385 11.9048 5.05935 11.8309 5.1347L9.52387 7.48816C9.39339 7.62126 9.33424 7.8128 9.36465 8.00029L9.90921 11.3236C9.92663 11.43 9.91526 11.5394 9.87638 11.6394C9.8375 11.7394 9.77267 11.8261 9.68921 11.8895C9.60575 11.953 9.507 11.9907 9.40411 11.9985C9.30123 12.0063 9.19832 11.9838 9.10702 11.9335L6.2554 10.3642C6.17601 10.3206 6.0877 10.2978 5.99805 10.2978C5.9084 10.2978 5.82008 10.3206 5.74069 10.3642L2.88908 11.9335C2.79777 11.9838 2.69486 12.0063 2.59198 11.9985C2.48909 11.9907 2.39034 11.953 2.30688 11.8895C2.22343 11.8261 2.15859 11.7394 2.11971 11.6394C2.08084 11.5394 2.06947 11.43 2.08689 11.3236L2.63145 8.00029C2.64661 7.90781 2.64003 7.81286 2.61229 7.72363C2.58455 7.63441 2.53648 7.55359 2.47223 7.48816L0.165169 5.1347C0.0912506 5.05935 0.0389546 4.96385 0.0141969 4.859C-0.0105607 4.75415 -0.00679188 4.64415 0.0250771 4.54142C0.0569461 4.4387 0.115643 4.34737 0.194528 4.27775C0.273413 4.20813 0.369338 4.16301 0.471449 4.14749L3.6592 3.66256C3.74791 3.64908 3.83215 3.61322 3.90468 3.55808C3.9772 3.50293 4.03582 3.43016 4.0755 3.34603L5.50131 0.322465C5.70586 -0.107488 6.29189 -0.107488 6.49479 0.322465Z" fill="#858799"/>
</svg>
