<svg width="15" height="15" viewBox="0 0 15 15" fill="none" xmlns="http://www.w3.org/2000/svg">
<g clip-path="url(#clip0_4508_26373)">
<path d="M13.3175 4.31304C13.3851 4.38055 13.4526 4.46734 13.5201 4.57343H10.1061V1.15944C10.2122 1.22695 10.299 1.29445 10.3665 1.36196L13.3175 4.31304ZM9.87463 5.49926H13.8094V13.1373C13.8094 13.3302 13.7419 13.4942 13.6069 13.6292C13.4719 13.7642 13.3079 13.8317 13.115 13.8317H3.39383C3.20095 13.8317 3.037 13.7642 2.90199 13.6292C2.76697 13.4942 2.69946 13.3302 2.69946 13.1373V1.56449C2.69946 1.37161 2.76697 1.20766 2.90199 1.07264C3.037 0.937625 3.20095 0.870117 3.39383 0.870117H9.18026V4.80488C9.18026 4.99777 9.24776 5.16171 9.38278 5.29673C9.5178 5.43175 9.68175 5.49926 9.87463 5.49926ZM11.0319 10.8228V10.3598C11.0319 10.2923 11.0102 10.2369 10.9668 10.1935C10.9234 10.1501 10.868 10.1284 10.8005 10.1284H5.7084C5.64089 10.1284 5.58544 10.1501 5.54204 10.1935C5.49864 10.2369 5.47695 10.2923 5.47695 10.3598V10.8228C5.47695 10.8903 5.49864 10.9457 5.54204 10.9891C5.58544 11.0325 5.64089 11.0542 5.7084 11.0542H10.8005C10.868 11.0542 10.9234 11.0325 10.9668 10.9891C11.0102 10.9457 11.0319 10.8903 11.0319 10.8228ZM11.0319 8.97111V8.50819C11.0319 8.44069 11.0102 8.38523 10.9668 8.34184C10.9234 8.29844 10.868 8.27674 10.8005 8.27674H5.7084C5.64089 8.27674 5.58544 8.29844 5.54204 8.34184C5.49864 8.38523 5.47695 8.44069 5.47695 8.50819V8.97111C5.47695 9.03862 5.49864 9.09407 5.54204 9.13747C5.58544 9.18087 5.64089 9.20257 5.7084 9.20257H10.8005C10.868 9.20257 10.9234 9.18087 10.9668 9.13747C11.0102 9.09407 11.0319 9.03862 11.0319 8.97111ZM11.0319 7.11945V6.65654C11.0319 6.58903 11.0102 6.53358 10.9668 6.49018C10.9234 6.44678 10.868 6.42508 10.8005 6.42508H5.7084C5.64089 6.42508 5.58544 6.44678 5.54204 6.49018C5.49864 6.53358 5.47695 6.58903 5.47695 6.65654V7.11945C5.47695 7.18696 5.49864 7.24241 5.54204 7.28581C5.58544 7.32921 5.64089 7.35091 5.7084 7.35091H10.8005C10.868 7.35091 10.9234 7.32921 10.9668 7.28581C11.0102 7.24241 11.0319 7.18696 11.0319 7.11945Z" fill="#86889A"/>
</g>
<defs>
<clipPath id="clip0_4508_26373">
<rect width="14" height="14" fill="white" transform="translate(0.638184 0.557617)"/>
</clipPath>
</defs>
</svg>
