<svg width="9" height="12" viewBox="0 0 9 12" fill="red" xmlns="http://www.w3.org/2000/svg">
<path d="M6.37066 7.01914L6.37045 7.01935L6.37628 7.02434C6.46424 7.09967 6.57738 7.13903 6.6931 7.13456C6.80882 7.13009 6.91859 7.08212 7.00048 7.00023C7.08237 6.91834 7.13034 6.80857 7.13481 6.69285C7.13928 6.57713 7.09992 6.46399 7.02459 6.37603L7.0248 6.37585L7.01956 6.37058C6.66581 6.01467 6.24949 5.72784 5.79199 5.52415C6.17844 5.21403 6.46999 4.7997 6.63097 4.32851C6.8112 3.80097 6.81837 3.22968 6.65143 2.69779C6.48449 2.1659 6.15216 1.70116 5.7028 1.37123C5.25344 1.04129 4.71052 0.863379 4.15304 0.863379C3.59557 0.863379 3.05264 1.04129 2.60328 1.37123C2.15392 1.70116 1.82159 2.1659 1.65465 2.69779C1.48771 3.22968 1.49488 3.80097 1.67511 4.32851C1.83603 4.79951 2.12741 5.21369 2.51362 5.52378C1.82269 5.82894 1.22946 6.32149 0.802165 6.94717C0.341453 7.62179 0.0950918 8.41975 0.0953126 9.23667C0.0953126 9.23668 0.0953127 9.23669 0.0953127 9.2367L0.0953126 9.59646C0.0953126 9.90926 0.219568 10.2092 0.440745 10.4304C0.661922 10.6516 0.961902 10.7758 1.27469 10.7758H5.23242C5.35437 10.7758 5.47132 10.7274 5.55754 10.6412C5.64377 10.5549 5.69221 10.438 5.69221 10.3161C5.69221 10.1941 5.64377 10.0772 5.55754 9.99093C5.47132 9.9047 5.35437 9.85626 5.23242 9.85626H1.27469C1.20579 9.85626 1.13971 9.82889 1.09099 9.78017C1.04227 9.73145 1.0149 9.66537 1.0149 9.59646L1.0149 9.23676C1.0149 9.23674 1.0149 9.23671 1.0149 9.23669C1.0149 9.23669 1.0149 9.23668 1.0149 9.23667C1.01546 8.61644 1.19981 8.01028 1.54465 7.49475C1.88951 6.97919 2.37942 6.57739 2.9525 6.3401C3.52558 6.10281 4.15613 6.04067 4.7645 6.16153C5.37288 6.28238 5.93179 6.58082 6.37066 7.01914ZM2.45407 3.47998C2.45407 3.14395 2.55372 2.81547 2.7404 2.53608C2.92709 2.25669 3.19243 2.03893 3.50287 1.91034C3.81332 1.78174 4.15493 1.7481 4.48449 1.81365C4.81406 1.87921 5.11679 2.04102 5.35439 2.27863C5.592 2.51623 5.75381 2.81896 5.81936 3.14852C5.88492 3.47809 5.85127 3.8197 5.72268 4.13014C5.59409 4.44059 5.37633 4.70593 5.09694 4.89262C4.81754 5.0793 4.48906 5.17894 4.15304 5.17894C3.70245 5.17894 3.27031 4.99995 2.95169 4.68133C2.63307 4.36271 2.45407 3.93057 2.45407 3.47998Z" fill="#86889A" stroke="#86889A" stroke-width="0.2"/>
<path d="M8.52434 7.87004C8.4248 7.74622 8.30102 7.64405 8.16057 7.5698C8.02012 7.49556 7.86598 7.4508 7.70761 7.43829C7.47001 7.42267 7.23349 7.4818 7.0312 7.60739C6.82929 7.48089 6.59247 7.42168 6.35478 7.43829C6.19669 7.45036 6.04271 7.49455 5.90228 7.56817C5.76185 7.64179 5.63791 7.74328 5.53805 7.86644C5.33293 8.13045 5.22613 8.45763 5.23598 8.79181C5.24582 9.12599 5.37171 9.44632 5.59202 9.69779L6.60304 10.8383C6.65675 10.9007 6.72328 10.9508 6.7981 10.9851C6.87293 11.0194 6.95427 11.0372 7.03659 11.0372C7.11891 11.0372 7.20026 11.0194 7.27508 10.9851C7.3499 10.9508 7.41644 10.9007 7.47014 10.8383L8.47037 9.69779C8.68976 9.44658 8.81509 9.12697 8.82493 8.79359C8.83478 8.46021 8.72852 8.13376 8.52434 7.87004Z" fill="#86889A"/>
</svg>
